<?xml version="1.0" encoding="UTF-8" standalone="no"?>
<svg
   xmlns:dc="http://purl.org/dc/elements/1.1/"
   xmlns:cc="http://creativecommons.org/ns#"
   xmlns:rdf="http://www.w3.org/1999/02/22-rdf-syntax-ns#"
   xmlns:svg="http://www.w3.org/2000/svg"
   xmlns="http://www.w3.org/2000/svg"
   xmlns:xlink="http://www.w3.org/1999/xlink"
   version="1.0"
   width="87.533516"
   height="81.812645"
   id="svg14662">
  <metadata
     id="metadata87">
    <rdf:RDF>
      <cc:Work
         rdf:about="">
        <dc:format>image/svg+xml</dc:format>
        <dc:type
           rdf:resource="http://purl.org/dc/dcmitype/StillImage" />
        <dc:title></dc:title>
      </cc:Work>
    </rdf:RDF>
  </metadata>
  <defs
     id="defs14664">
    <linearGradient
       id="linearGradient3261">
      <stop
         style="stop-color:#ffffff;stop-opacity:0"
         offset="0"
         id="stop3263" />
      <stop
         style="stop-color:#ffffff;stop-opacity:0"
         offset="0.5"
         id="stop3269" />
      <stop
         style="stop-color:#ffffff;stop-opacity:1"
         offset="1"
         id="stop3265" />
    </linearGradient>
    <linearGradient
       id="linearGradient3219">
      <stop
         style="stop-color:#0e7309;stop-opacity:1"
         offset="0"
         id="stop3221" />
      <stop
         style="stop-color:#70d13e;stop-opacity:1"
         offset="1"
         id="stop3223" />
    </linearGradient>
    <linearGradient
       id="linearGradient3205">
      <stop
         style="stop-color:#2c8300;stop-opacity:1"
         offset="0"
         id="stop3207" />
      <stop
         style="stop-color:#3db800;stop-opacity:1"
         offset="0.25"
         id="stop3215" />
      <stop
         style="stop-color:#ffffff;stop-opacity:1"
         offset="0.5"
         id="stop3213" />
      <stop
         style="stop-color:#69cf35;stop-opacity:1"
         offset="1"
         id="stop3209" />
    </linearGradient>
    <linearGradient
       id="linearGradient3197">
      <stop
         style="stop-color:#002f32;stop-opacity:1"
         offset="0"
         id="stop3199" />
      <stop
         style="stop-color:#045b04;stop-opacity:1"
         offset="1"
         id="stop3201" />
    </linearGradient>
    <linearGradient
       id="linearGradient3339">
      <stop
         style="stop-color:#e8e8e8;stop-opacity:1"
         offset="0"
         id="stop3341" />
      <stop
         style="stop-color:#ffffff;stop-opacity:1"
         offset="0.5"
         id="stop3347" />
      <stop
         style="stop-color:#e8e8e8;stop-opacity:1"
         offset="1"
         id="stop3343" />
    </linearGradient>
    <linearGradient
       id="linearGradient3327">
      <stop
         style="stop-color:#ffffff;stop-opacity:1"
         offset="0"
         id="stop3329" />
      <stop
         style="stop-color:#fdd99a;stop-opacity:1"
         offset="0.5"
         id="stop3335" />
      <stop
         style="stop-color:#c39539;stop-opacity:1"
         offset="1"
         id="stop3331" />
    </linearGradient>
    <linearGradient
       id="linearGradient3319">
      <stop
         style="stop-color:#7d491f;stop-opacity:1"
         offset="0"
         id="stop3321" />
      <stop
         style="stop-color:#926600;stop-opacity:1"
         offset="1"
         id="stop3323" />
    </linearGradient>
    <linearGradient
       id="linearGradient3282">
      <stop
         style="stop-color:#ffffff;stop-opacity:0"
         offset="0"
         id="stop3284" />
      <stop
         style="stop-color:#ffffff;stop-opacity:1"
         offset="1"
         id="stop3286" />
    </linearGradient>
    <linearGradient
       id="linearGradient14709">
      <stop
         style="stop-color:#ffffff;stop-opacity:1"
         offset="0"
         id="stop14711" />
      <stop
         style="stop-color:#5eb2ff;stop-opacity:1"
         offset="1"
         id="stop14713" />
    </linearGradient>
    <linearGradient
       id="linearGradient14685">
      <stop
         style="stop-color:#0917a0;stop-opacity:1"
         offset="0"
         id="stop14687" />
      <stop
         style="stop-color:#0345f4;stop-opacity:1"
         offset="1"
         id="stop14689" />
    </linearGradient>
    <linearGradient
       x1="96.125"
       y1="11.1875"
       x2="96.125"
       y2="52.101334"
       id="linearGradient14691"
       xlink:href="#linearGradient14685"
       gradientUnits="userSpaceOnUse" />
    <radialGradient
       cx="546.31165"
       cy="705.48486"
       r="25.28125"
       fx="546.31165"
       fy="705.48486"
       id="radialGradient14715"
       xlink:href="#linearGradient14709"
       gradientUnits="userSpaceOnUse"
       gradientTransform="matrix(2.032821,0,-3.289062e-8,1.717338,-565.7183,-518.4991)" />
    <linearGradient
       x1="96.381813"
       y1="30.666691"
       x2="96.381813"
       y2="13.187494"
       id="linearGradient3302"
       xlink:href="#linearGradient3282"
       gradientUnits="userSpaceOnUse"
       gradientTransform="matrix(0.934851,0,0,0.934851,453.691,638.9931)" />
    <linearGradient
       x1="41.945538"
       y1="46.665127"
       x2="41.945538"
       y2="82.333244"
       id="linearGradient3325"
       xlink:href="#linearGradient3319"
       gradientUnits="userSpaceOnUse" />
    <radialGradient
       cx="53.60223"
       cy="59.728882"
       r="17.834057"
       fx="53.60223"
       fy="59.728882"
       id="radialGradient3333"
       xlink:href="#linearGradient3327"
       gradientUnits="userSpaceOnUse"
       gradientTransform="matrix(0,1.655849,-1.639188,0,152.1501,-32.92373)" />
    <linearGradient
       x1="28.429483"
       y1="61.798298"
       x2="58.95916"
       y2="61.798298"
       id="linearGradient3345"
       xlink:href="#linearGradient3339"
       gradientUnits="userSpaceOnUse" />
    <linearGradient
       x1="83.28125"
       y1="123.09795"
       x2="83.28125"
       y2="66.310989"
       id="linearGradient3203"
       xlink:href="#linearGradient3197"
       gradientUnits="userSpaceOnUse" />
    <radialGradient
       cx="491.52231"
       cy="670.92523"
       r="36.426601"
       fx="491.52231"
       fy="670.92523"
       id="radialGradient3211"
       xlink:href="#linearGradient3205"
       gradientUnits="userSpaceOnUse"
       gradientTransform="matrix(0,2.023783,-1.958054,0,1805.23,-312.4948)" />
    <linearGradient
       x1="517.02167"
       y1="705.48438"
       x2="517.02167"
       y2="745.30084"
       id="linearGradient3240"
       xlink:href="#linearGradient3219"
       gradientUnits="userSpaceOnUse"
       gradientTransform="matrix(-1,0,0,1,983.3261,0)" />
    <linearGradient
       x1="517.02167"
       y1="705.48438"
       x2="517.02167"
       y2="745.30084"
       id="linearGradient3243"
       xlink:href="#linearGradient3219"
       gradientUnits="userSpaceOnUse"
       gradientTransform="translate(-0.120047,0)" />
    <radialGradient
       cx="479.68311"
       cy="709.6579"
       r="5.0058851"
       fx="479.68311"
       fy="709.6579"
       id="radialGradient3267"
       xlink:href="#linearGradient3261"
       gradientUnits="userSpaceOnUse"
       gradientTransform="matrix(1.233976,-0.151603,0.190797,1.552993,-247.6349,-320.152)" />
    <linearGradient
       gradientTransform="matrix(1.125651,0,0,1.125651,-477.8318,-158.0894)"
       y2="177.4375"
       x2="501.42935"
       y1="243.7218"
       x1="501.42935"
       gradientUnits="userSpaceOnUse"
       id="linearGradient2303"
       xlink:href="#linearGradient8091" />
    <linearGradient
       gradientTransform="matrix(1.125651,0,0,1.125651,-477.8318,-158.0894)"
       y2="177.4375"
       x2="431.2106"
       y1="243.7218"
       x1="431.2106"
       gradientUnits="userSpaceOnUse"
       id="linearGradient2301"
       xlink:href="#linearGradient3234" />
    <linearGradient
       gradientTransform="matrix(1.125651,0,0,1.125651,-477.8318,-158.0894)"
       y2="177.4375"
       x2="501.42935"
       y1="243.7218"
       x1="501.42935"
       gradientUnits="userSpaceOnUse"
       id="linearGradient2298"
       xlink:href="#linearGradient8091" />
    <linearGradient
       gradientTransform="matrix(1.125651,0,0,1.125651,-477.8318,-158.0894)"
       y2="211.24593"
       x2="456.39401"
       y1="208.11548"
       x1="480.27173"
       gradientUnits="userSpaceOnUse"
       id="linearGradient2296"
       xlink:href="#linearGradient9070" />
    <linearGradient
       gradientTransform="matrix(1.125651,0,0,1.125651,-477.8318,-158.0894)"
       y2="218.45189"
       x2="442.96814"
       y1="161.51843"
       x1="459.44681"
       gradientUnits="userSpaceOnUse"
       id="linearGradient2292"
       xlink:href="#linearGradient3226" />
    <linearGradient
       gradientTransform="matrix(1.125651,0,0,1.125651,-477.8318,-158.0894)"
       y2="177.4375"
       x2="501.42935"
       y1="243.7218"
       x1="501.42935"
       gradientUnits="userSpaceOnUse"
       id="linearGradient2286"
       xlink:href="#linearGradient8091" />
    <linearGradient
       gradientUnits="userSpaceOnUse"
       xlink:href="#linearGradient8091"
       id="linearGradient4393"
       y2="177.4375"
       x2="501.42935"
       y1="243.7218"
       x1="501.42935" />
    <linearGradient
       gradientUnits="userSpaceOnUse"
       xlink:href="#linearGradient3226"
       id="linearGradient4391"
       y2="218.45189"
       x2="442.96814"
       y1="161.51843"
       x1="459.44681" />
    <linearGradient
       gradientUnits="userSpaceOnUse"
       xlink:href="#linearGradient8091"
       id="linearGradient4389"
       y2="177.4375"
       x2="501.42935"
       y1="243.7218"
       x1="501.42935" />
    <linearGradient
       gradientUnits="userSpaceOnUse"
       xlink:href="#linearGradient9070"
       id="linearGradient4387"
       y2="211.24593"
       x2="456.39401"
       y1="208.11548"
       x1="480.27173" />
    <linearGradient
       gradientUnits="userSpaceOnUse"
       xlink:href="#linearGradient8091"
       id="linearGradient4385"
       y2="177.4375"
       x2="501.42935"
       y1="243.7218"
       x1="501.42935" />
    <linearGradient
       gradientUnits="userSpaceOnUse"
       xlink:href="#linearGradient3234"
       id="linearGradient4383"
       y2="177.4375"
       x2="431.2106"
       y1="243.7218"
       x1="431.2106" />
    <filter
       id="filter4341">
      <feGaussianBlur
         stdDeviation="0.33625764"
         id="feGaussianBlur4343" />
    </filter>
    <linearGradient
       gradientUnits="userSpaceOnUse"
       xlink:href="#linearGradient8091"
       id="linearGradient15009"
       y2="177.4375"
       x2="501.42935"
       y1="243.7218"
       x1="501.42935" />
    <linearGradient
       gradientUnits="userSpaceOnUse"
       xlink:href="#linearGradient3226"
       id="linearGradient15007"
       y2="218.45189"
       x2="442.96814"
       y1="161.51843"
       x1="459.44681" />
    <linearGradient
       gradientUnits="userSpaceOnUse"
       xlink:href="#linearGradient8091"
       id="linearGradient15005"
       y2="177.4375"
       x2="501.42935"
       y1="243.7218"
       x1="501.42935" />
    <linearGradient
       gradientUnits="userSpaceOnUse"
       xlink:href="#linearGradient9070"
       id="linearGradient15003"
       y2="211.24593"
       x2="456.39401"
       y1="208.11548"
       x1="480.27173" />
    <linearGradient
       gradientUnits="userSpaceOnUse"
       xlink:href="#linearGradient8091"
       id="linearGradient15001"
       y2="177.4375"
       x2="501.42935"
       y1="243.7218"
       x1="501.42935" />
    <linearGradient
       gradientUnits="userSpaceOnUse"
       xlink:href="#linearGradient3234"
       id="linearGradient14999"
       y2="177.4375"
       x2="431.2106"
       y1="243.7218"
       x1="431.2106" />
    <linearGradient
       gradientUnits="userSpaceOnUse"
       xlink:href="#linearGradient8091"
       id="linearGradient14963"
       y2="177.4375"
       x2="501.42935"
       y1="243.7218"
       x1="501.42935" />
    <linearGradient
       gradientUnits="userSpaceOnUse"
       xlink:href="#linearGradient3226"
       id="linearGradient14961"
       y2="218.45189"
       x2="442.96814"
       y1="161.51843"
       x1="459.44681" />
    <linearGradient
       gradientUnits="userSpaceOnUse"
       xlink:href="#linearGradient8091"
       id="linearGradient14959"
       y2="177.4375"
       x2="501.42935"
       y1="243.7218"
       x1="501.42935" />
    <linearGradient
       gradientUnits="userSpaceOnUse"
       xlink:href="#linearGradient9070"
       id="linearGradient14957"
       y2="211.24593"
       x2="456.39401"
       y1="208.11548"
       x1="480.27173" />
    <linearGradient
       gradientUnits="userSpaceOnUse"
       xlink:href="#linearGradient8091"
       id="linearGradient14955"
       y2="177.4375"
       x2="501.42935"
       y1="243.7218"
       x1="501.42935" />
    <linearGradient
       gradientUnits="userSpaceOnUse"
       xlink:href="#linearGradient3234"
       id="linearGradient14953"
       y2="177.4375"
       x2="431.2106"
       y1="243.7218"
       x1="431.2106" />
    <linearGradient
       gradientUnits="userSpaceOnUse"
       xlink:href="#linearGradient8091"
       id="linearGradient14951"
       y2="177.4375"
       x2="501.42935"
       y1="243.7218"
       x1="501.42935" />
    <linearGradient
       gradientUnits="userSpaceOnUse"
       xlink:href="#linearGradient3226"
       id="linearGradient14949"
       y2="218.45189"
       x2="442.96814"
       y1="161.51843"
       x1="459.44681" />
    <linearGradient
       gradientUnits="userSpaceOnUse"
       xlink:href="#linearGradient8091"
       id="linearGradient14947"
       y2="177.4375"
       x2="501.42935"
       y1="243.7218"
       x1="501.42935" />
    <linearGradient
       gradientUnits="userSpaceOnUse"
       xlink:href="#linearGradient9070"
       id="linearGradient14945"
       y2="211.24593"
       x2="456.39401"
       y1="208.11548"
       x1="480.27173" />
    <linearGradient
       gradientUnits="userSpaceOnUse"
       xlink:href="#linearGradient8091"
       id="linearGradient14943"
       y2="177.4375"
       x2="501.42935"
       y1="243.7218"
       x1="501.42935" />
    <linearGradient
       gradientUnits="userSpaceOnUse"
       xlink:href="#linearGradient3234"
       id="linearGradient14941"
       y2="177.4375"
       x2="431.2106"
       y1="243.7218"
       x1="431.2106" />
    <linearGradient
       gradientUnits="userSpaceOnUse"
       xlink:href="#linearGradient9070"
       id="linearGradient9076"
       y2="211.24593"
       x2="456.39401"
       y1="208.11548"
       x1="480.27173" />
    <linearGradient
       gradientUnits="userSpaceOnUse"
       xlink:href="#linearGradient8091"
       id="linearGradient8097"
       y2="177.4375"
       x2="501.42935"
       y1="243.7218"
       x1="501.42935" />
    <linearGradient
       gradientUnits="userSpaceOnUse"
       xlink:href="#linearGradient3234"
       id="linearGradient1496"
       y2="177.4375"
       x2="431.2106"
       y1="243.7218"
       x1="431.2106" />
    <linearGradient
       gradientUnits="userSpaceOnUse"
       xlink:href="#linearGradient3226"
       id="linearGradient3232"
       y2="218.45189"
       x2="442.96814"
       y1="161.51843"
       x1="459.44681" />
    <linearGradient
       id="linearGradient3226">
      <stop
         id="stop3228"
         offset="0"
         style="stop-color:#ffffff;stop-opacity:1" />
      <stop
         id="stop3230"
         offset="1"
         style="stop-color:#d8d8e5;stop-opacity:1" />
    </linearGradient>
    <linearGradient
       id="linearGradient3234">
      <stop
         id="stop3236"
         offset="0"
         style="stop-color:#bdbdcb;stop-opacity:1" />
      <stop
         id="stop3238"
         offset="1"
         style="stop-color:#b3b3c9;stop-opacity:1" />
    </linearGradient>
    <linearGradient
       id="linearGradient8091">
      <stop
         id="stop8093"
         offset="0"
         style="stop-color:#5b5b5a;stop-opacity:1" />
      <stop
         id="stop8095"
         offset="1"
         style="stop-color:#9191a7;stop-opacity:1" />
    </linearGradient>
    <linearGradient
       id="linearGradient9070">
      <stop
         id="stop9072"
         offset="0"
         style="stop-color:#dadae4;stop-opacity:1" />
      <stop
         id="stop9074"
         offset="1"
         style="stop-color:#a0a0b7;stop-opacity:1" />
    </linearGradient>
  </defs>
  <g
     transform="matrix(-0.6787644,0,0,0.7009488,360.736,-462.02405)"
     id="user">
    <path
       d="m 492.35552,660.38391 c -14.71669,0 -26.69498,11.97829 -26.69498,26.69498 0,14.71669 11.97829,26.69498 26.69498,26.69498 14.71668,0 26.69497,-11.97829 26.69497,-26.69498 0,-14.71669 -11.97829,-26.69498 -26.69497,-26.69498 z"
       style="opacity:0.5;fill:#000000;fill-opacity:1;stroke:none;stroke-width:1.33686185;stroke-linecap:square;stroke-linejoin:miter;stroke-miterlimit:4;stroke-dasharray:none;stroke-dashoffset:0;stroke-opacity:1"
       id="path3281" />
    <path
       d="m 492.27231,697.65234 c -21.63445,0 -39.1875,17.34747 -39.1875,38.75 l 0,6.125 c 0,6.05287 6.27536,18.75 28.90625,18.75 l 20.53125,0 c 22.63038,0 28.9375,-12.07964 28.9375,-18.75 l 0,-6.125 c 0,-21.40254 -17.55305,-38.75 -39.1875,-38.75 z"
       style="opacity:0.5;fill:#000000;fill-opacity:1;stroke:none;stroke-width:1.5;stroke-linecap:square;stroke-linejoin:miter;stroke-miterlimit:4;stroke-dashoffset:0;stroke-opacity:1"
       id="path3283" />
    <path
       d="m 44.09375,59.46875 c -21.634452,0 -39.1875001,17.347467 -39.1875,38.75 l 0,6.125 c 0,6.05287 6.275359,18.75 28.90625,18.75 l 20.53125,0 c 22.63038,0 28.937503,-12.07964 28.9375,-18.75 l 0,-6.125 c 0,-21.402536 -17.553047,-38.749999 -39.1875,-38.75 z"
       transform="translate(447.4286,636.9336)"
       style="fill:url(#linearGradient3203);fill-opacity:1;stroke:none;stroke-width:1.5;stroke-linecap:square;stroke-linejoin:miter;stroke-miterlimit:4;stroke-dashoffset:0;stroke-opacity:1"
       id="path2214" />
    <path
       d="m 491.52231,698.56305 c -20.11022,0 -36.4266,15.9074 -36.4266,35.53322 l 0,5.61655 c 0,5.55039 5.83324,17.1935 26.8697,17.1935 l 19.08475,0 c 21.03599,0 26.89875,-11.07687 26.89875,-17.1935 l 0,-5.61655 c 0,-19.62582 -16.31638,-35.53322 -36.4266,-35.53322 z"
       style="fill:url(#radialGradient3211);fill-opacity:1;stroke:none;stroke-width:1.5;stroke-linecap:square;stroke-linejoin:miter;stroke-miterlimit:4;stroke-dashoffset:0;stroke-opacity:1"
       id="path3193" />
    <path
       d="m 509.00874,705.87423 c 8.46364,9.0621 14.91528,24.09751 16.80551,38.65267"
       style="fill:#000000;fill-opacity:0;fill-rule:evenodd;stroke:url(#linearGradient3243);stroke-width:1.5;stroke-linecap:butt;stroke-linejoin:miter;stroke-miterlimit:4;stroke-dasharray:none;stroke-opacity:1"
       id="path3217" />
    <path
       d="m 474.19733,705.87423 c -8.46364,9.0621 -14.91528,24.09751 -16.80551,38.65267"
       style="fill:#000000;fill-opacity:0;fill-rule:evenodd;stroke:url(#linearGradient3240);stroke-width:1.5;stroke-linecap:butt;stroke-linejoin:miter;stroke-miterlimit:4;stroke-dasharray:none;stroke-opacity:1"
       id="path3227" />
    <path
       d="m 484.83052,710.07561 c -2.3027,1.97418 -4.96223,3.5307 -3.72122,8.28271 -5.66073,-1.14662 -9.94971,-8.89011 -6.36208,-14.40472 l 10.0833,6.12201 z"
       style="fill:#c5ffbd;fill-opacity:1;fill-rule:evenodd;stroke:#52aa5d;stroke-width:1px;stroke-linecap:butt;stroke-linejoin:miter;stroke-opacity:1"
       id="path3249" />
    <path
       d="m -36.972118,84.910487 -5.409768,-9.369991 10.819535,-10e-7 -5.409767,9.369992 z"
       transform="matrix(1.168871,0,0,1.168871,534.8187,623.4459)"
       style="opacity:1;fill:#ff2600;fill-opacity:1;stroke:#800000;stroke-width:0.85552669;stroke-linecap:square;stroke-linejoin:miter;stroke-miterlimit:4;stroke-dasharray:none;stroke-dashoffset:0;stroke-opacity:1"
       id="path3245" />
    <path
       d="m 497.96513,710.07561 c 2.78286,1.49402 6.04258,3.41066 4.80157,8.16267 4.9405,-2.10693 8.86936,-8.77007 5.28173,-14.28468 l -10.0833,6.12201 z"
       style="fill:#a0ff74;fill-opacity:1;fill-rule:evenodd;stroke:#5eaa5e;stroke-width:1px;stroke-linecap:butt;stroke-linejoin:miter;stroke-opacity:1"
       id="path3247" />
    <path
       d="m 474.96875,704.65625 9,5.46875 c -0.98816,0.81483 -2.01362,1.64574 -2.75,2.78125 -0.74928,1.1554 -0.98341,2.74156 -0.65625,4.71875 -2.36917,-0.72853 -4.49352,-2.64468 -5.65625,-5.0625 -1.20326,-2.5021 -1.34831,-5.40312 0.0625,-7.90625 z"
       style="fill:url(#radialGradient3267);fill-opacity:1;fill-rule:evenodd;stroke:none;stroke-width:1px;stroke-linecap:butt;stroke-linejoin:miter;stroke-opacity:1"
       id="path3251" />
    <path
       d="m 76.945221,64.499184 c 0.0023,9.481932 -7.683694,17.16977 -17.165626,17.16977 -9.481933,0 -17.167916,-7.687838 -17.165627,-17.16977 -0.0023,-9.481932 7.683694,-17.16977 17.165627,-17.16977 9.481932,0 17.167915,7.687838 17.165626,17.16977 z"
       transform="matrix(1.496041,0,0,1.496041,402.1703,589.3342)"
       style="opacity:1;fill:url(#radialGradient3333);fill-opacity:1;stroke:url(#linearGradient3325);stroke-width:1.33686185;stroke-linecap:square;stroke-linejoin:miter;stroke-miterlimit:4;stroke-dasharray:none;stroke-dashoffset:0;stroke-opacity:1"
       id="path2309" />
  </g>
  <g
     transform="matrix(0.2375377,0,0,0.1388797,-61.369832,21.699538)"
     id="book">
    <path
       style="fill:#001873;fill-opacity:1;fill-rule:evenodd;stroke:#fefefe;stroke-width:5;stroke-linecap:butt;stroke-linejoin:miter;stroke-miterlimit:4;stroke-opacity:1"
       id="path14684"
       d="m 264.66115,311.01114 c 24.93922,41.90468 47.33363,76.68386 72.27285,118.58855 51.23569,-24.59991 72.95147,-32.913 117.57063,-48.35156 19.51028,5.5986 40.03848,-4.58067 48.35156,-12.21514 36.81504,-5.08964 79.73764,-11.1972 121.13336,-15.26891 -1.01793,-6.61653 1.01793,-9.16134 0,-15.77787 -42.92261,-31.3861 -86.35417,-64.29909 -129.27678,-95.68519 -78.38042,22.22475 -151.6712,46.48536 -230.05162,68.71012 z" />
    <path
       style="fill:#ffffff;fill-opacity:1;fill-rule:evenodd;stroke:#001873;stroke-width:3.75;stroke-linecap:butt;stroke-linejoin:miter;stroke-miterlimit:4;stroke-opacity:1"
       id="path14685"
       d="m 274.33146,312.53802 c 22.39441,35.62746 44.78881,71.25493 67.18322,106.88239 39.69917,-20.86751 86.82198,-51.95048 123.68878,-43.64739 -1.78947,-12.27188 3.97878,-19.14539 11.18661,-27.09857 -59.88807,-10.34893 -89.74727,24.09095 -132.33057,40.7171 -0.84827,8.65238 -1.69655,17.30477 -2.54482,25.95715 1.18758,-8.31307 1.35723,-16.62615 2.54481,-24.93922 -19.34062,-30.02886 -42.24398,-67.69219 -61.5846,-97.72105 -6.27723,3.05378 -6.95584,12.7241 -8.14343,19.84959 z" />
    <path
       style="fill:#ffffff;fill-opacity:1;fill-rule:evenodd;stroke:#001873;stroke-width:3.75;stroke-linecap:butt;stroke-linejoin:miter;stroke-miterlimit:4;stroke-opacity:1"
       id="path14686"
       d="m 470.79147,360.38062 c 16.45649,-31.3861 29.80263,-33.60346 62.09358,-38.17229 25.29841,-3.57946 43.03551,-2.73505 68.82301,-3.92264 -2.20551,7.46481 1.58365,17.32535 4.97674,27.33497 -24.26061,1.01793 -43.43158,-0.50896 -70.237,3.05378 -17.81374,-1.52689 -33.59162,9.67032 -45.29778,21.37648 1.01793,-21.71578 -11.19721,-8.31306 -20.35855,-9.6703 z" />
    <path
       style="fill:#ffffff;fill-opacity:1;fill-rule:evenodd;stroke:#001873;stroke-width:2.5;stroke-linecap:butt;stroke-linejoin:miter;stroke-miterlimit:4;stroke-opacity:1"
       id="path14687"
       d="m 396.48276,273.85678 c 25.44819,24.59991 50.89638,49.19983 76.34457,73.79974 -61.66944,-7.63446 -94.58244,29.77437 -129.2768,41.98951 -20.01924,-31.72541 -41.31089,-65.48667 -61.33013,-97.21208 25.10888,-12.04547 41.68577,-31.89095 78.12594,-34.86401 14.12444,-1.15238 25.10888,8.31307 36.13642,16.28684 z" />
    <path
       style="fill:#ffffff;fill-opacity:1;fill-rule:evenodd;stroke:#001873;stroke-width:2.5;stroke-linecap:butt;stroke-linejoin:miter;stroke-miterlimit:4;stroke-opacity:1"
       id="path950"
       d="m 476.49663,348.91674 c 18.9543,-32.03036 58.06253,-27.35177 124.88243,-32.39025 -35.26939,-23.99278 -70.53878,-47.98557 -105.80817,-71.97835 -46.1861,8.9973 -77.25675,-10.07697 -102.20924,25.55232 l 83.13498,78.81628 z" />
  </g>
  <g
     transform="translate(-31.527431,-39.611574)"
     id="layer1"
     style="display:inline" />
</svg>
