<?xml version="1.0" encoding="UTF-8" standalone="no"?>
<!-- Created with Inkscape (http://www.inkscape.org/) -->
<svg
   xmlns:svg="http://www.w3.org/2000/svg"
   xmlns="http://www.w3.org/2000/svg"
   xmlns:xlink="http://www.w3.org/1999/xlink"
   version="1.0"
   width="400"
   height="360"
   id="svg2">
  <defs
     id="defs5">
    <linearGradient
       id="linearGradient3065">
      <stop
         id="stop3067"
         style="stop-color:#c8c8c8;stop-opacity:1"
         offset="0" />
      <stop
         id="stop3069"
         style="stop-color:#646464;stop-opacity:1"
         offset="1" />
    </linearGradient>
    <linearGradient
       id="linearGradient3055">
      <stop
         id="stop3057"
         style="stop-color:#d7d7d7;stop-opacity:1"
         offset="0" />
      <stop
         id="stop3059"
         style="stop-color:#c8c8c8;stop-opacity:1"
         offset="1" />
    </linearGradient>
    <linearGradient
       id="linearGradient3041">
      <stop
         id="stop3043"
         style="stop-color:#d7d7d7;stop-opacity:1"
         offset="0" />
      <stop
         id="stop3045"
         style="stop-color:#ffffff;stop-opacity:1"
         offset="1" />
    </linearGradient>
    <linearGradient
       id="linearGradient2889">
      <stop
         id="stop2891"
         style="stop-color:#a0a3e1;stop-opacity:1"
         offset="0" />
      <stop
         id="stop2893"
         style="stop-color:#dedcfa;stop-opacity:1"
         offset="1" />
    </linearGradient>
    <linearGradient
       x1="92.604424"
       y1="304.50995"
       x2="263.82959"
       y2="26.290426"
       id="linearGradient2895"
       xlink:href="#linearGradient2889"
       gradientUnits="userSpaceOnUse" />
    <linearGradient
       x1="24.04163"
       y1="215.04311"
       x2="340.82547"
       y2="215.04311"
       id="linearGradient3120"
       xlink:href="#linearGradient3041"
       gradientUnits="userSpaceOnUse" />
    <linearGradient
       x1="51.5"
       y1="197.3537"
       x2="51.5"
       y2="137.49948"
       id="linearGradient3122"
       xlink:href="#linearGradient3055"
       gradientUnits="userSpaceOnUse"
       gradientTransform="translate(-0.5,6.75)" />
    <linearGradient
       x1="58"
       y1="157"
       x2="371.5"
       y2="157"
       id="linearGradient3124"
       xlink:href="#linearGradient3065"
       gradientUnits="userSpaceOnUse" />
    <mask
       id="mask3114">
      <g
         id="g3073">
        <rect
           width="316.78384"
           height="33.941124"
           x="24.04163"
           y="198.07254"
           id="rect3039"
           style="opacity:1;fill:url(#linearGradient3120);fill-opacity:1;fill-rule:nonzero;stroke:none;stroke-width:15;stroke-linecap:round;stroke-linejoin:round;stroke-miterlimit:4;stroke-dasharray:none;stroke-dashoffset:0;stroke-opacity:1" />
        <rect
           width="41"
           height="59.75"
           x="24"
           y="144.25"
           id="rect3053"
           style="opacity:1;fill:url(#linearGradient3122);fill-opacity:1;fill-rule:nonzero;stroke:none;stroke-width:15;stroke-linecap:round;stroke-linejoin:round;stroke-miterlimit:4;stroke-dasharray:none;stroke-dashoffset:0;stroke-opacity:1" />
        <rect
           width="313.5"
           height="78"
           x="58"
           y="118"
           id="rect3063"
           style="opacity:1;fill:url(#linearGradient3124);fill-opacity:1;fill-rule:nonzero;stroke:none;stroke-width:15;stroke-linecap:round;stroke-linejoin:round;stroke-miterlimit:4;stroke-dasharray:none;stroke-dashoffset:0;stroke-opacity:1" />
      </g>
    </mask>
    <linearGradient
       x1="24.04163"
       y1="215.04311"
       x2="340.82547"
       y2="215.04311"
       id="linearGradient1935"
       xlink:href="#linearGradient3041"
       gradientUnits="userSpaceOnUse" />
    <linearGradient
       x1="51.5"
       y1="197.3537"
       x2="51.5"
       y2="137.49948"
       id="linearGradient1937"
       xlink:href="#linearGradient3055"
       gradientUnits="userSpaceOnUse"
       gradientTransform="translate(-0.5,6.75)" />
    <linearGradient
       x1="58"
       y1="157"
       x2="371.5"
       y2="157"
       id="linearGradient1939"
       xlink:href="#linearGradient3065"
       gradientUnits="userSpaceOnUse" />
    <mask
       id="mask1929">
      <g
         transform="matrix(1,0,0,-1,216,226.0137)"
         id="g1915">
        <rect
           width="316.78384"
           height="33.941124"
           x="24.04163"
           y="198.07254"
           id="rect1917"
           style="opacity:1;fill:url(#linearGradient1935);fill-opacity:1;fill-rule:nonzero;stroke:none;stroke-width:15;stroke-linecap:round;stroke-linejoin:round;stroke-miterlimit:4;stroke-dasharray:none;stroke-dashoffset:0;stroke-opacity:1" />
        <rect
           width="41"
           height="59.75"
           x="24"
           y="144.25"
           id="rect1919"
           style="opacity:1;fill:url(#linearGradient1937);fill-opacity:1;fill-rule:nonzero;stroke:none;stroke-width:15;stroke-linecap:round;stroke-linejoin:round;stroke-miterlimit:4;stroke-dasharray:none;stroke-dashoffset:0;stroke-opacity:1" />
        <rect
           width="313.5"
           height="78"
           x="58"
           y="118"
           id="rect1921"
           style="opacity:1;fill:url(#linearGradient1939);fill-opacity:1;fill-rule:nonzero;stroke:none;stroke-width:15;stroke-linecap:round;stroke-linejoin:round;stroke-miterlimit:4;stroke-dasharray:none;stroke-dashoffset:0;stroke-opacity:1" />
      </g>
    </mask>
  </defs>
  <path
     d="M 374,169 C 374,252.94728 288.9341,321 184,321 C 79.065898,321 -6,252.94728 -6,169 C -6,85.052718 79.065898,17 184,17 C 288.9341,17 374,85.052718 374,169 L 374,169 z"
     transform="matrix(0.851641,-0.524127,0.524127,0.851641,-45.27941,132.512)"
     id="path2869"
     style="opacity:1;fill:url(#linearGradient2895);fill-opacity:1;stroke:none;stroke-width:3.125;stroke-linecap:butt;stroke-linejoin:round;stroke-miterlimit:4;stroke-dasharray:none;stroke-dashoffset:0;stroke-opacity:1" />
  <path
     d="M 225,181 C 225,195.076 213.576,206.5 199.5,206.5 C 185.424,206.5 174,195.076 174,181 C 174,166.924 185.424,155.5 199.5,155.5 C 213.576,155.5 225,166.924 225,181 z M 192.25,173.25 C 189.05841,177.3131 187.61682,185.62621 183.68136,181.00091 C 181.76588,178.74966 184.47383,170.51673 187.5,167.75 C 190.2869,165.20202 197.02754,160.76957 199.93392,162.87027 C 205.26845,166.72601 195.75693,168.78545 192.25,173.25 z"
     id="path3096"
     style="fill:#000000;fill-opacity:1;fill-rule:evenodd;stroke:none;stroke-width:15;stroke-linecap:round;stroke-linejoin:round;stroke-miterlimit:4;stroke-dashoffset:0;stroke-opacity:1" />
  <path
     d="M 354,202 C 380,178 385,128 197,128 C 102.49868,128 27.499008,151.61959 27.499008,178.5 C 27.499008,200.77248 66.5,229 200,229 C 274.9808,229 298.32116,222.58113 304.67142,221.61764 C 309.2269,220.92646 339.04662,224.54785 337.53009,209.22013 C 336.53371,199.14966 320.10476,206.45848 311.41421,210.82843 C 297.19147,217.98018 270.11052,222.35355 200,222.35355 C -31.175983,222.35355 -7.7903763,134 197,134 C 421.0558,134 354,204 354,202 z"
     mask="url(#mask3114)"
     id="path3154"
     style="fill:#000000;fill-opacity:1;fill-rule:evenodd;stroke:none;stroke-width:1px;stroke-linecap:butt;stroke-linejoin:miter;stroke-opacity:1" />
  <path
     d="M 354,202 C 380,178 385,128 197,128 C 102.49868,128 27.499008,151.61959 27.499008,178.5 C 27.499008,200.77248 66.5,229 200,229 C 274.9808,229 298.32116,222.58113 304.67142,221.61764 C 309.2269,220.92646 339.04662,224.54785 337.53009,209.22013 C 336.53371,199.14966 320.10476,206.45848 311.41421,210.82843 C 297.19147,217.98018 270.11052,222.35355 200,222.35355 C -31.175983,222.35355 -7.7903763,134 197,134 C 421.0558,134 354,204 354,202 z"
     transform="matrix(0,1,-1,0,377.8151,-18.81511)"
     mask="url(#mask3114)"
     id="path3168"
     style="fill:#000000;fill-opacity:1;fill-rule:evenodd;stroke:none;stroke-width:1px;stroke-linecap:butt;stroke-linejoin:miter;stroke-opacity:1" />
  <path
     d="M 570,24.013664 C 596,48.013664 601,98.013664 413,98.013664 C 318.49868,98.013664 243.49901,74.394074 243.49901,47.513664 C 243.49901,25.241184 282.5,-2.9863358 416,-2.9863358 C 490.9808,-2.9863358 514.32116,3.4325342 520.67142,4.3960242 C 525.2269,5.0872042 555.04662,1.4658142 553.53009,16.793534 C 552.53371,26.864004 536.10476,19.555184 527.41421,15.185234 C 513.19147,8.0334842 486.11052,3.6601142 416,3.6601142 C 184.82402,3.6601142 208.20962,92.013664 413,92.013664 C 637.0558,92.013664 570,22.013664 570,24.013664 z"
     transform="matrix(-0.707107,-0.707107,0.707107,-0.707107,459.4724,507.0144)"
     mask="url(#mask1929)"
     id="path1913"
     style="fill:#000000;fill-opacity:1;fill-rule:evenodd;stroke:none;stroke-width:1px;stroke-linecap:butt;stroke-linejoin:miter;stroke-opacity:1" />
  <path
     d="M 570,24.013664 C 596,48.013664 601,98.013664 413,98.013664 C 318.49868,98.013664 243.49901,74.394074 243.49901,47.513664 C 243.49901,25.241184 282.5,-2.9863358 416,-2.9863358 C 490.9808,-2.9863358 514.32116,3.4325342 520.67142,4.3960242 C 525.2269,5.0872042 555.04662,1.4658142 553.53009,16.793534 C 552.53371,26.864004 536.10476,19.555184 527.41421,15.185234 C 513.19147,8.0334842 486.11052,3.6601142 416,3.6601142 C 184.82402,3.6601142 208.20962,92.013664 413,92.013664 C 637.0558,92.013664 570,22.013664 570,24.013664 z"
     transform="matrix(0.707107,-0.707107,0.707107,0.707107,-127.1146,440.2454)"
     mask="url(#mask1929)"
     id="path1941"
     style="fill:#000000;fill-opacity:1;fill-rule:evenodd;stroke:none;stroke-width:1px;stroke-linecap:butt;stroke-linejoin:miter;stroke-opacity:1" />
</svg>
